<svg version="1" xmlns="http://www.w3.org/2000/svg" width="933.333" height="933.333" viewBox="0 0 700.000000 700.000000"><path d="M147 5.4c-7.5 4.5-42.4 24.7-48 27.8-2.5 1.4-11.7 6.7-20.5 11.8-8.8 5.1-17.6 10.1-19.5 11.2-1.9 1.1-4.8 2.7-6.5 3.7-2.7 1.6-13.5 7.8-42 24.1l-10 5.7v176.6l3 1.7c3 1.7 88.4 50.8 93.7 53.9 1.6.9 14.8 8.5 29.4 16.9l26.5 15.3 29.2-16.7c34.9-20 87.9-50.4 92.4-53 6.4-3.8 25.9-14.9 28.3-16.2 1.3-.7 2.7-1.7 3-2.2.4-.7.5-172 .1-175.5 0-.6-1.8-1.9-3.8-3-2.1-1.1-10.1-5.6-17.8-10.1C235.1 48.9 153.1 2 152.7 2.1c-.1 0-2.7 1.5-5.7 3.3zM529 12.3c-9.6 5.5-19.5 11.1-22 12.5-2.5 1.3-4.9 2.7-5.5 3.2-.5.4-3 1.9-5.5 3.2-3.6 2-37.4 21.5-53.5 30.8-1.6.9-12.7 7.2-24.5 14s-22.2 12.9-23 13.6c-1.3 1.1-1.5 12-1.5 88.8 0 48.1.2 87.7.5 87.9.3.2 7 4.2 15 8.7 8 4.5 20.1 11.5 27 15.5 6.9 3.9 14.5 8.3 17 9.7 2.5 1.4 18 10.3 34.5 19.8 34.9 20.1 32.6 18.8 47.7 27.4l11.7 6.6 43.8-25.1c24.1-13.8 46.3-26.6 49.3-28.4 3-1.8 7.5-4.4 10-5.7 2.5-1.4 11.7-6.7 20.5-11.8 8.8-5.1 18.5-10.6 21.5-12.3 3-1.6 6.1-3.4 6.8-4 .9-.7 1.2-19.3 1-89l-.3-88-23-13.1C654.8 64.1 605.6 35.9 569 14.8c-9.1-5.2-17.9-10.2-19.5-11-3-1.6-3.1-1.5-20.5 8.5zM302.9 373.2c-26.1 14.9-60.4 34.6-76.4 43.8l-29 16.6v176.6l33 19c18.2 10.4 35 20.1 37.5 21.5 2.5 1.4 11.7 6.7 20.5 11.8 8.8 5.1 17.8 10.3 20 11.5 10 5.6 32.4 18.6 36.7 21.2l4.8 3 24.7-14.2c13.7-7.9 38.5-22.2 55.3-31.8 16.8-9.7 32-18.4 33.8-19.3 1.8-1 3.8-2.2 4.5-2.7.7-.5 3.9-2.4 7.2-4.2 3.3-1.7 6.5-3.5 7-4 .6-.4 3.3-2 6-3.5 2.8-1.5 7.3-4.1 10-5.7l5-3-.1-87.6c-.1-48.3-.2-88-.3-88.3 0-.3-1.8-1.4-3.8-2.5-6.2-3.4-115.3-66-137.7-79.1-5.9-3.4-10.9-6.3-11.1-6.3-.1 0-21.6 12.2-47.6 27.2z"/></svg>