<svg version="1" xmlns="http://www.w3.org/2000/svg" width="682.667" height="682.667" viewBox="0 0 512.000000 512.000000"><path d="M451 1.4c-19.6 4.1-40.1 17-53.3 33.4l-2.6 3.2-6.8-4.6c-20.3-14-43.7-19.7-65.1-16-17.4 3-34.7 11-50 23.1-4.2 3.3-41.5 30.2-82.9 59.8-80.4 57.4-85.5 61.3-100.5 75.4-25.2 23.8-42.1 46.4-56.8 76.2-17.6 35.6-26 69.7-26 105.4 0 19 1.2 29.5 5 44.2 14.4 55.8 56.4 95.8 113 107.6 12.5 2.6 37.6 3.1 50.5 1 34.8-5.6 64.8-18.9 97-43 12.9-9.6 40.9-37.7 50.6-50.6 18.2-24.4 32.6-52.5 42.7-83.5 1.7-5.2 14-46 27.2-90.5 13.3-44.6 26.1-87.1 28.5-94.6 11.7-36 9.5-64.6-6.9-88.4l-5.4-7.9 5.1-5.9c15-17.3 34.3-26.4 53.5-25.5 7.5.4 9.1.9 17.7 5.3 8.2 4.2 9.8 4.7 12.6 3.9 6.5-1.9 9.6-10.8 5.4-15.4-3.1-3.4-12.8-8.7-20.2-11C474.7.3 459.9-.4 451 1.4zm-99.9 57.2c8.1 2.4 15.5 7 23 14.3 7.2 7.1 9.5 10.9 11.5 18.6 3.1 11.3 1.2 22.2-8.1 49.1-8.3 23.9-11.7 36.5-28.5 105.3-8.3 34.1-15.4 61.3-17.6 67-6.1 16-18.8 40.9-27.3 53.6-31.5 47.3-78.8 83.9-123 95-38.6 9.8-72.5 1.4-98.4-24.2-34-33.6-38.9-91.5-13.2-154.5 12.7-30.9 29.2-56.2 52.5-80.2 20.8-21.4 27.5-26.5 71.2-54.5 63.6-40.6 80.2-51.8 103.8-70.2 14.9-11.5 21.2-15.5 29.4-18.5 7.4-2.8 16.9-3.1 24.7-.8z"/><path d="M215.5 220.9c-29.5 7.9-67.9 33.5-89.9 60-16.3 19.6-23.5 37.5-24.3 60.6-.6 15.8 1 24.4 6.5 36 5 10.2 10.3 16.9 18.3 23 11.9 8.9 23.2 12.5 39.4 12.5 22.1 0 42.8-9.2 60.6-26.9 31.6-31.5 53.1-106.9 40.6-142.8-3.8-11.1-8.3-16.5-17.7-21.4-6.2-3.3-23.1-3.7-33.5-1zm-30.3 82.3c10.9 7.7 5.1 25.8-8.2 25.8-8.2 0-14-6.2-14-14.8 0-4.3.5-5.7 3.1-8.7 5.1-5.7 13-6.7 19.1-2.3zM144 334.1c4.9 2.8 7 6.6 7 12.8 0 14.5-19.8 19.1-26.5 6.1-3.5-6.8-.5-15.7 6.5-19.2 4.6-2.4 8.4-2.3 13 .3zm43.6 22.5c9.7 4.6 9.9 20 .2 25-9.7 5-20.8-1.6-20.8-12.5 0-10.7 10.7-17.2 20.6-12.5z"/></svg>