<?xml version="1.0" standalone="no"?>
<!DOCTYPE svg PUBLIC "-//W3C//DTD SVG 20010904//EN"
 "http://www.w3.org/TR/2001/REC-SVG-20010904/DTD/svg10.dtd">
<svg version="1.0" xmlns="http://www.w3.org/2000/svg"
 width="700.000000pt" height="700.000000pt" viewBox="0 0 700.000000 700.000000"
 preserveAspectRatio="xMidYMid meet">
<metadata>
Created by potrace 1.11, written by Peter Selinger 2001-2013
</metadata>
<g transform="translate(0.000000,700.000000) scale(0.100000,-0.100000)"
fill="#000000" stroke="none">
<path d="M4186 6984 c-64 -20 -115 -53 -157 -102 -31 -37 -214 -365 -494 -887
-26 -49 -51 -94 -55 -100 -4 -5 -29 -50 -55 -100 -26 -49 -74 -138 -106 -197
-55 -98 -89 -199 -83 -240 1 -9 4 -34 7 -55 9 -58 8 -57 272 -543 136 -250
263 -484 283 -520 19 -36 45 -83 57 -105 12 -22 48 -89 81 -150 90 -167 168
-237 289 -259 51 -10 1450 -10 1501 0 59 11 116 39 165 82 42 38 72 86 189
307 24 44 46 85 50 90 4 6 26 46 50 90 24 44 69 127 100 185 31 58 77 141 101
185 23 44 101 186 171 315 144 264 163 313 155 407 -5 65 -29 122 -120 288
-18 33 -55 101 -82 150 -26 50 -69 128 -95 175 -26 47 -71 130 -100 185 -29
55 -56 105 -60 110 -4 6 -29 51 -55 100 -27 50 -56 104 -65 120 -9 17 -54 100
-101 185 -94 173 -140 228 -226 268 l-58 27 -755 2 c-650 2 -762 0 -804 -13z"/>
<path d="M1249 5236 c-111 -30 -173 -89 -254 -241 -43 -80 -183 -337 -213
-390 -6 -11 -51 -94 -100 -185 -118 -218 -134 -247 -236 -433 -47 -87 -86
-161 -86 -164 0 -3 -9 -17 -19 -32 -32 -44 -54 -137 -49 -207 4 -71 30 -127
196 -429 54 -99 117 -214 139 -255 198 -365 409 -750 428 -781 29 -45 95 -99
155 -125 43 -18 74 -19 820 -19 l775 0 58 29 c79 40 132 101 201 231 93 174
146 271 266 490 18 33 47 87 65 120 18 33 43 80 57 105 14 25 56 101 93 170
107 198 126 232 155 285 84 151 82 267 -6 418 -19 32 -34 60 -34 62 0 2 -35
68 -78 147 -43 79 -98 179 -122 223 -24 44 -53 98 -65 120 -12 22 -37 67 -55
100 -18 33 -58 107 -90 165 -31 58 -73 134 -92 170 -19 36 -54 101 -78 145
-99 183 -150 239 -254 275 -55 19 -87 19 -794 19 -554 0 -748 -3 -783 -13z"/>
<path d="M4256 3277 c-141 -15 -219 -78 -311 -247 -32 -58 -70 -127 -85 -155
-15 -27 -57 -104 -92 -170 -36 -66 -80 -147 -98 -180 -18 -33 -53 -98 -78
-145 -25 -47 -52 -93 -60 -102 -8 -10 -12 -18 -9 -18 4 0 -14 -34 -38 -76 -25
-42 -45 -77 -45 -79 0 -3 -40 -78 -89 -167 -107 -197 -112 -212 -113 -303 0
-70 22 -125 111 -288 43 -78 99 -182 126 -232 26 -49 51 -94 55 -100 4 -5 31
-55 60 -110 29 -55 74 -138 100 -185 26 -47 66 -121 90 -165 23 -44 50 -93 60
-110 9 -16 39 -70 65 -120 27 -49 58 -107 69 -127 48 -91 124 -155 215 -182
46 -13 145 -15 804 -13 l752 2 55 26 c113 53 136 88 525 814 60 111 232 426
257 470 16 28 50 92 75 144 43 84 48 102 50 169 1 52 -3 89 -16 123 -15 39
-122 241 -266 504 -50 91 -284 520 -373 685 -19 36 -50 91 -68 123 -19 32 -34
61 -34 65 0 3 -22 27 -48 52 -57 54 -121 86 -188 95 -71 10 -1376 11 -1458 2z
m1216 -681 c32 -15 72 -44 90 -66 27 -31 113 -174 267 -444 13 -22 57 -98 97
-169 96 -164 116 -216 113 -286 -4 -82 7 -61 -297 -586 -42 -71 -92 -159 -111
-194 -52 -92 -115 -154 -181 -176 -50 -17 -95 -19 -465 -20 -429 -1 -471 2
-537 43 -57 35 -83 71 -198 272 -62 107 -121 207 -131 222 -11 15 -19 29 -19
31 0 3 -30 56 -66 118 -107 184 -125 226 -126 294 -1 76 14 113 120 295 47 80
95 163 107 185 254 447 282 482 408 503 23 4 229 7 457 7 l415 -1 57 -28z"/>
</g>
</svg>
