<svg version="1" xmlns="http://www.w3.org/2000/svg" width="682.667" height="682.667" viewBox="0 0 512.000000 512.000000"><path d="M240.9 3.7c-18.2 10.1-33.8 27.7-42.2 47.6-3.5 8.5-8 25.4-9.2 35l-.6 4.8-4.2-3.8c-5.5-5.1-10-7.8-17.8-10.7-18.2-6.8-41.1-7.7-66.1-2.5-13.6 2.8-12.3 2.4-20.3 5-3.8 1.2-7.6 2.4-8.3 2.5-2.4.4-2.3 1 1.2 9.3 8.5 20.2 24.9 39.6 44.8 53.2l5.7 3.9-2.2 4.4c-1.2 2.4-2.4 4.3-2.7 4.3-1.9-.1-9 1.7-9 2.3 0 .3-.6.7-1.3.7-3.6 0-16.2 9.7-21.3 16.4-2.2 3-4.6 6.8-4.5 7.4.1.3-.5 1.8-1.3 3.3-3.1 6.1-4.5 18.4-3.1 27.2.4 2.5.8 4.7 1.1 4.9.2.2-2.6 3.5-6.1 7.3-3.6 3.7-6.5 7.4-6.5 8.1 0 .7-.6 1.9-1.2 2.5-.7.7-1.3 1.6-1.3 2-.1.4-.6 1.6-1.2 2.8-1.3 2.2-1.7 4.1-3.3 13.6-.9 5.1-.7 8.9.6 15.2.3 1.1.7 3.2 1 4.6 1.1 5.5 6.2 13.8 12 19.9 4.4 4.4 6 6.9 5.7 8.2-.3 1-.9 1.9-1.3 1.9-.8 0-6 9.3-6.4 11.7-.2 1-.9 3.7-1.5 6-1.8 6.5-1.6 17.4.4 24.7 1.1 3.8 5.8 13.6 6.7 13.6.4 0 .8.6.8 1.3 0 1.4 8.8 10.1 13.6 13.4 3.8 2.7 9.5 5.2 15.1 6.7 4.3 1.1 4.3 1.1 2.8 3.8-.7 1.6-1.1 2.8-.8 2.8.3 0 .1.6-.5 1.3-.5.6-1.3 3-1.7 5.2-2.3 12.8-.6 24.7 4.8 35 4.7 8.7 18.4 21.7 22 20.7.4-.1.7.2.7.7 0 .4 2 1.4 4.4 2.1 3.4.9 4.7 1.9 5.5 4.1.6 1.6 1.6 4.3 2.2 5.9.6 1.6 1.6 3 2.2 3 .6 0 .7.3.4.6-.4.4.4 2.1 1.6 3.8 14.8 20.8 40.8 27.8 63.1 17.1l6.9-3.3 2.5 3.6c1.3 2.1 4.8 6 7.6 8.8 9.6 9.4 19.3 13.5 33 13.9 15.7.5 27.6-4.4 38.3-15.9 5.8-6.3 6.6-6.8 8.6-5.7 1.2.6 3.2 1.3 4.5 1.6 1.2.2 2.7.7 3.2 1 2.1 1.3 13.8 1.3 20.6 0 9.6-1.8 17.8-6.1 25.1-13.2 5.5-5.3 11.1-13.3 11.7-16.5.1-.7.7-2.3 1.4-3.4.6-1.2.9-2.3.7-2.6-.2-.2.2-2.4.9-4.8.9-3 1.9-4.4 3.2-4.5 2.4-.3 10.6-2.5 11.9-3.3.6-.4 1.6-.7 2.3-.8.8-.2 2.2-1 3.1-1.8 1-.9 2.2-1.6 2.8-1.6 1.2 0 11.4-9.7 14.5-13.7 5.1-6.6 7.8-15.3 8.4-26.9.3-6.5 0-10.4-1.1-13.4-.8-2.3-1.5-4.6-1.5-5 0-.5 2.4-2.2 5.3-3.8 9.7-5.6 17.6-14.7 21.6-25 7.3-18.4 3-39.6-10.9-53.4l-6.1-6 5.3-5.7c5.7-5.9 9.8-11.4 10.2-13.4.2-.7 1-2.8 1.9-4.7 4-9.1 4.2-24.8.5-33.9-.6-1.4-1.2-3.2-1.4-3.9-1-4.8-13.5-19-20.1-22.8-2.3-1.3-3.3-2.6-3.4-4.4-.2-8.1-1.8-13.9-5.5-21-3.1-6-11-16-12.6-16-.4 0-1.9-1.1-3.4-2.5-1.4-1.3-3-2.2-3.5-1.9-.5.3-.9.1-.9-.5 0-.9-2.4-2.1-4.3-2.1-.4 0-2.2-.7-4-1.6-3.4-1.7-4.9-3.7-5.4-6.7-.4-2.3-3.3-8-4.5-8.8-.5-.3 1.7-2.7 4.9-5.4 15.1-12.6 27.8-28.5 34.7-43.6 5.6-12.3 5.9-11.3-4-14.4-9.6-2.9-29.1-7.2-36.9-7.9-7-.7-27.3-.8-31.5-.1-15.1 2.5-29.1 8.3-37.4 15.6l-4.5 3.9-.6-5.7c-4.3-36.4-24.7-68.2-52.6-82.3L247.3.1l-6.4 3.6z"/></svg>