<?xml version="1.0" standalone="no"?>
<!DOCTYPE svg PUBLIC "-//W3C//DTD SVG 20010904//EN"
 "http://www.w3.org/TR/2001/REC-SVG-20010904/DTD/svg10.dtd">
<svg version="1.0" xmlns="http://www.w3.org/2000/svg"
 width="700.000000pt" height="700.000000pt" viewBox="0 0 700.000000 700.000000"
 preserveAspectRatio="xMidYMid meet">
<metadata>
Created by potrace 1.11, written by Peter Selinger 2001-2013
</metadata>
<g transform="translate(0.000000,700.000000) scale(0.100000,-0.100000)"
fill="#000000" stroke="none">
<path d="M1470 6946 c-75 -45 -424 -247 -480 -278 -25 -14 -117 -67 -205 -118
-88 -51 -176 -101 -195 -112 -19 -11 -48 -27 -65 -37 -27 -16 -135 -78 -420
-241 l-100 -57 0 -883 0 -883 30 -17 c30 -17 884 -508 937 -539 16 -9 148 -85
294 -169 l265 -153 292 167 c349 200 879 504 924 530 64 38 259 149 283 162
13 7 27 17 30 22 4 7 5 1720 1 1755 0 6 -18 19 -38 30 -21 11 -101 56 -178
101 -494 285 -1314 754 -1318 753 -1 0 -27 -15 -57 -33z"/>
<path d="M5290 6877 c-96 -55 -195 -111 -220 -125 -25 -13 -49 -27 -55 -32 -5
-4 -30 -19 -55 -32 -36 -20 -374 -215 -535 -308 -16 -9 -127 -72 -245 -140
-118 -68 -222 -129 -230 -136 -13 -11 -15 -120 -15 -888 0 -481 2 -877 5 -879
3 -2 70 -42 150 -87 80 -45 201 -115 270 -155 69 -39 145 -83 170 -97 25 -14
180 -103 345 -198 349 -201 326 -188 477 -274 l117 -66 438 251 c241 138 463
266 493 284 30 18 75 44 100 57 25 14 117 67 205 118 88 51 185 106 215 123
30 16 61 34 68 40 9 7 12 193 10 890 l-3 880 -230 131 c-217 125 -709 407
-1075 618 -91 52 -179 102 -195 110 -30 16 -31 15 -205 -85z"/>
<path d="M3029 3268 c-261 -149 -604 -346 -764 -438 l-290 -166 0 -883 0 -883
330 -190 c182 -104 350 -201 375 -215 25 -14 117 -67 205 -118 88 -51 178
-103 200 -115 100 -56 324 -186 367 -212 l48 -30 247 142 c137 79 385 222 553
318 168 97 320 184 338 193 18 10 38 22 45 27 7 5 39 24 72 42 33 17 65 35 70
40 6 4 33 20 60 35 28 15 73 41 100 57 l50 30 -1 876 c-1 483 -2 880 -3 883 0
3 -18 14 -38 25 -62 34 -1153 660 -1377 791 -59 34 -109 63 -111 63 -1 0 -216
-122 -476 -272z"/>
</g>
</svg>
