<?xml version="1.0" encoding="iso-8859-1"?>
<!-- Generator: Adobe Illustrator 16.0.0, SVG Export Plug-In . SVG Version: 6.00 Build 0)  -->
<!DOCTYPE svg PUBLIC "-//W3C//DTD SVG 1.1//EN" "http://www.w3.org/Graphics/SVG/1.1/DTD/svg11.dtd">
<svg xmlns="http://www.w3.org/2000/svg" xmlns:xlink="http://www.w3.org/1999/xlink" version="1.1" id="Capa_1" x="0px" y="0px" width="512px" height="512px" viewBox="0 0 31.998 31.997" style="enable-background:new 0 0 31.998 31.997;" xml:space="preserve">
<g>
	<g>
		<path d="M19.585,16.999c-0.572,0-1.099,0.312-1.372,0.813l-3.23,5.939c-0.253,0.465-0.253,1.025,0,1.491l3.23,5.938    c0.273,0.502,0.8,0.815,1.372,0.815h6.3c0.572,0,1.1-0.313,1.372-0.815l3.231-5.938c0.253-0.467,0.253-1.027,0-1.493l-3.231-5.938    c-0.272-0.502-0.8-0.814-1.372-0.814L19.585,16.999L19.585,16.999z M25.586,28.367c-0.225,0.391-0.642,0.632-1.092,0.632h-3.518    c-0.449,0-0.866-0.241-1.092-0.631l-1.868-3.239c-0.226-0.391-0.226-0.87,0-1.261l1.868-3.239c0.226-0.39,0.643-0.63,1.092-0.63    h3.518c0.45,0,0.867,0.24,1.092,0.631l1.868,3.239c0.225,0.39,0.225,0.869,0,1.259L25.586,28.367z" fill="#ffffff"/>
		<path d="M13.785,8.814c-0.273-0.502-0.8-0.815-1.372-0.815H6.111c-0.572,0-1.099,0.312-1.372,0.815l-3.23,5.939    c-0.253,0.465-0.253,1.026,0,1.491l3.23,5.939c0.273,0.502,0.8,0.814,1.372,0.814h6.302c0.572,0,1.099-0.314,1.372-0.814    l3.23-5.939c0.253-0.465,0.253-1.026,0-1.491L13.785,8.814z" fill="#ffffff"/>
		<path d="M25.885,14.999c0.572,0,1.1-0.313,1.372-0.815l3.231-5.939c0.253-0.466,0.253-1.027,0-1.493l-3.231-5.938    C26.985,0.312,26.458,0,25.885,0h-6.3c-0.572,0-1.099,0.312-1.372,0.814l-3.23,5.939c-0.253,0.465-0.253,1.026,0,1.491l3.23,5.94    c0.273,0.502,0.8,0.815,1.372,0.815H25.885z" fill="#ffffff"/>
	</g>
</g>
<g>
</g>
<g>
</g>
<g>
</g>
<g>
</g>
<g>
</g>
<g>
</g>
<g>
</g>
<g>
</g>
<g>
</g>
<g>
</g>
<g>
</g>
<g>
</g>
<g>
</g>
<g>
</g>
<g>
</g>
</svg>
